P3
4 4
255
10 50 53 53 32 48 32 32 32 48 32 32
32 32 32 32 32 48 32 32 32 50 53 53
32 48 32 32 32 32 32 32 48 32 32 32
48 32 32 32 50 53 53 32 32 32 32 50